<svg baseProfile="full" height="1024" version="1.1" width="1536" xmlns="http://www.w3.org/2000/svg" xmlns:ev="http://www.w3.org/2001/xml-events" xmlns:xlink="http://www.w3.org/1999/xlink"><defs /><path d="M954,582 L954,678 L1009,678 L1009,660 L975,660 L974,659 L974,640 L975,639 L1005,639 L1005,621 L975,621 L974,620 L974,601 L975,600 L1009,600 L1009,582 Z M860,582 L860,584 L861,585 L861,587 L862,588 L862,590 L863,591 L863,593 L864,594 L864,596 L865,597 L865,599 L866,600 L866,602 L867,603 L867,605 L868,606 L868,608 L869,609 L869,611 L870,612 L870,614 L871,615 L871,617 L872,618 L872,619 L873,620 L873,622 L874,623 L874,625 L875,626 L875,628 L876,629 L876,631 L877,632 L877,634 L878,635 L878,637 L879,638 L879,640 L880,641 L880,643 L881,644 L881,646 L882,647 L882,649 L883,650 L883,652 L884,653 L884,655 L885,656 L885,658 L886,659 L886,661 L887,662 L887,663 L888,664 L888,666 L889,667 L889,669 L890,670 L890,672 L891,673 L891,675 L892,676 L892,678 L913,678 L914,677 L914,675 L915,674 L915,672 L916,671 L916,669 L917,668 L917,666 L918,665 L918,663 L919,662 L919,660 L920,659 L920,657 L921,656 L921,654 L922,653 L922,651 L923,650 L923,649 L924,648 L924,646 L925,645 L925,643 L926,642 L926,640 L927,639 L927,637 L928,636 L928,634 L929,633 L929,631 L930,630 L930,628 L931,627 L931,625 L932,624 L932,622 L933,621 L933,619 L934,618 L934,616 L935,615 L935,613 L936,612 L936,610 L937,609 L937,607 L938,606 L938,604 L939,603 L939,601 L940,600 L940,598 L941,597 L941,595 L942,594 L942,592 L943,591 L943,589 L944,588 L944,586 L945,585 L945,583 L946,582 L926,582 L925,583 L925,586 L924,587 L924,589 L923,590 L923,592 L922,593 L922,595 L921,596 L921,598 L920,599 L920,601 L919,602 L919,604 L918,605 L918,607 L917,608 L917,611 L916,612 L916,613 L915,614 L915,617 L914,618 L914,620 L913,621 L913,623 L912,624 L912,626 L911,627 L911,629 L910,630 L910,632 L909,633 L909,635 L908,636 L908,638 L907,639 L907,641 L906,642 L906,645 L905,646 L905,648 L904,649 L904,651 L903,652 L902,651 L902,650 L901,649 L901,647 L900,646 L900,644 L899,643 L899,641 L898,640 L898,638 L897,637 L897,635 L896,634 L896,632 L895,631 L895,629 L894,628 L894,626 L893,625 L893,622 L892,621 L892,619 L891,618 L891,616 L890,615 L890,613 L889,612 L889,610 L888,609 L888,607 L887,606 L887,604 L886,603 L886,601 L885,600 L885,598 L884,597 L884,595 L883,594 L883,591 L882,590 L882,588 L881,587 L881,585 L880,584 L880,582 Z M816,582 L816,583 L815,584 L815,586 L814,587 L814,589 L813,590 L813,592 L812,593 L812,595 L811,596 L811,598 L810,599 L810,601 L809,602 L809,604 L808,605 L808,606 L807,607 L807,609 L806,610 L806,612 L805,613 L805,615 L804,616 L804,618 L803,619 L803,621 L802,622 L802,624 L801,625 L801,626 L800,627 L800,629 L799,630 L799,632 L798,633 L798,635 L797,636 L797,638 L796,639 L796,641 L795,642 L795,644 L794,645 L794,647 L793,648 L793,650 L792,651 L792,652 L791,653 L791,655 L790,656 L790,658 L789,659 L789,661 L788,662 L788,664 L787,665 L787,667 L786,668 L786,670 L785,671 L785,673 L784,674 L784,676 L783,677 L783,678 L804,678 L804,676 L805,675 L805,673 L806,672 L806,670 L807,669 L807,667 L808,666 L808,663 L809,662 L809,661 L810,660 L844,660 L845,661 L845,663 L846,664 L846,666 L847,667 L847,669 L848,670 L848,672 L849,673 L849,675 L850,676 L850,678 L871,678 L871,677 L870,676 L870,674 L869,673 L869,671 L868,670 L868,668 L867,667 L867,665 L866,664 L866,663 L865,662 L865,660 L864,659 L864,657 L863,656 L863,654 L862,653 L862,651 L861,650 L861,648 L860,647 L860,645 L859,644 L859,643 L858,642 L858,640 L857,639 L857,637 L856,636 L856,634 L855,633 L855,631 L854,630 L854,628 L853,627 L853,626 L852,625 L852,623 L851,622 L851,620 L850,619 L850,617 L849,616 L849,614 L848,613 L848,611 L847,610 L847,609 L846,608 L846,606 L845,605 L845,603 L844,602 L844,600 L843,599 L843,597 L842,596 L842,595 L841,594 L841,592 L840,591 L840,589 L839,588 L839,586 L838,585 L838,583 L837,582 Z M825,610 L826,609 L827,609 L828,610 L828,613 L829,614 L829,616 L830,617 L830,619 L831,620 L831,622 L832,623 L832,625 L833,626 L833,628 L834,629 L834,630 L835,631 L835,634 L836,635 L836,636 L837,637 L837,639 L838,640 L838,641 L837,642 L816,642 L815,641 L816,640 L816,638 L817,637 L817,635 L818,634 L818,632 L819,631 L819,629 L820,628 L820,626 L821,625 L821,623 L822,622 L822,620 L823,619 L823,616 L824,615 L824,613 L825,612 Z M702,582 L702,678 L742,678 L743,677 L747,677 L748,676 L750,676 L751,675 L753,675 L754,674 L756,674 L757,673 L758,673 L759,672 L760,672 L762,670 L763,670 L765,668 L766,668 L773,661 L773,660 L776,657 L776,656 L777,655 L777,654 L778,653 L778,652 L779,651 L779,650 L780,649 L780,647 L781,646 L781,643 L782,642 L782,637 L783,636 L783,625 L782,624 L782,619 L781,618 L781,615 L780,614 L780,612 L779,611 L779,610 L778,609 L778,608 L777,607 L777,606 L776,605 L776,604 L774,602 L774,601 L764,591 L763,591 L761,589 L760,589 L759,588 L758,588 L757,587 L756,587 L755,586 L754,586 L753,585 L751,585 L750,584 L748,584 L747,583 L743,583 L742,582 Z M722,600 L723,599 L724,600 L741,600 L742,601 L744,601 L745,602 L746,602 L747,603 L748,603 L749,604 L750,604 L757,611 L757,612 L758,613 L758,614 L759,615 L759,616 L760,617 L760,619 L761,620 L761,622 L762,623 L762,636 L761,637 L761,641 L760,642 L760,643 L759,644 L759,645 L758,646 L758,647 L757,648 L757,649 L751,655 L750,655 L748,657 L747,657 L746,658 L744,658 L743,659 L739,659 L738,660 L723,660 L722,659 Z M403,480 L402,481 L400,481 L399,482 L397,482 L396,483 L395,483 L394,484 L393,484 L390,487 L389,487 L386,490 L386,491 L383,494 L383,495 L382,496 L382,497 L381,498 L381,500 L380,501 L380,503 L379,504 L379,517 L380,518 L380,520 L381,521 L381,523 L382,524 L382,525 L383,526 L383,527 L386,530 L386,531 L389,534 L390,534 L393,537 L394,537 L395,538 L396,538 L397,539 L398,539 L399,540 L402,540 L403,541 L416,541 L417,540 L419,540 L420,539 L421,539 L422,538 L423,538 L424,537 L425,537 L426,536 L427,536 L434,529 L434,528 L436,526 L436,525 L437,524 L437,523 L438,522 L438,520 L439,519 L439,514 L440,513 L440,508 L439,507 L439,503 L438,502 L438,500 L437,499 L437,498 L436,497 L436,496 L435,495 L435,494 L433,492 L433,491 L428,486 L427,486 L425,484 L424,484 L423,483 L422,483 L421,482 L419,482 L418,481 L416,481 L415,480 Z M1209,451 L1209,548 L1228,548 L1228,515 L1229,514 L1237,514 L1239,516 L1239,517 L1241,519 L1241,520 L1242,521 L1242,522 L1243,523 L1243,524 L1245,526 L1245,527 L1246,528 L1246,529 L1248,531 L1248,532 L1249,533 L1249,534 L1250,535 L1250,536 L1252,538 L1252,539 L1253,540 L1253,541 L1254,542 L1254,543 L1256,545 L1256,546 L1257,547 L1257,548 L1280,548 L1280,547 L1278,545 L1278,544 L1277,543 L1277,542 L1275,540 L1275,539 L1274,538 L1274,537 L1272,535 L1272,534 L1271,533 L1271,532 L1269,530 L1269,529 L1267,527 L1267,526 L1266,525 L1266,524 L1264,522 L1264,521 L1263,520 L1263,519 L1261,517 L1261,516 L1260,515 L1260,514 L1258,512 L1258,511 L1260,509 L1261,509 L1263,507 L1264,507 L1270,501 L1270,500 L1271,499 L1271,498 L1272,497 L1272,496 L1273,495 L1273,493 L1274,492 L1274,488 L1275,487 L1275,479 L1274,478 L1274,474 L1273,473 L1273,471 L1272,470 L1272,469 L1271,468 L1271,467 L1270,466 L1270,465 L1262,457 L1261,457 L1260,456 L1259,456 L1258,455 L1257,455 L1256,454 L1255,454 L1254,453 L1252,453 L1251,452 L1247,452 L1246,451 Z M1228,470 L1229,469 L1243,469 L1244,470 L1246,470 L1247,471 L1248,471 L1253,476 L1253,477 L1254,478 L1254,488 L1253,489 L1253,490 L1248,495 L1247,495 L1246,496 L1244,496 L1243,497 L1229,497 L1228,496 Z M1139,451 L1139,548 L1195,548 L1195,530 L1159,530 L1158,529 L1158,510 L1159,509 L1190,509 L1191,508 L1191,491 L1190,490 L1189,491 L1188,490 L1185,490 L1184,491 L1176,491 L1175,490 L1172,490 L1171,491 L1170,490 L1169,490 L1168,491 L1167,490 L1163,490 L1162,491 L1161,490 L1160,491 L1158,489 L1158,481 L1159,480 L1158,479 L1158,473 L1159,472 L1158,471 L1158,470 L1159,469 L1195,469 L1195,451 Z M1026,451 L1026,548 L1044,548 L1044,485 L1045,484 L1046,485 L1046,487 L1047,488 L1047,490 L1048,491 L1048,492 L1049,493 L1049,495 L1050,496 L1050,497 L1051,498 L1051,500 L1052,501 L1052,502 L1053,503 L1053,505 L1054,506 L1054,507 L1055,508 L1055,510 L1056,511 L1056,512 L1057,513 L1057,515 L1058,516 L1058,517 L1059,518 L1059,520 L1060,521 L1060,522 L1061,523 L1061,525 L1062,526 L1062,527 L1063,528 L1063,530 L1064,531 L1064,532 L1065,533 L1065,535 L1066,536 L1066,538 L1067,539 L1067,540 L1068,541 L1068,543 L1069,544 L1069,545 L1070,546 L1070,547 L1071,548 L1078,548 L1078,547 L1079,546 L1079,544 L1080,543 L1080,542 L1081,541 L1081,539 L1082,538 L1082,536 L1083,535 L1083,534 L1084,533 L1084,531 L1085,530 L1085,529 L1086,528 L1086,526 L1087,525 L1087,524 L1088,523 L1088,521 L1089,520 L1089,519 L1090,518 L1090,516 L1091,515 L1091,513 L1092,512 L1092,511 L1093,510 L1093,508 L1094,507 L1094,506 L1095,505 L1095,503 L1096,502 L1096,501 L1097,500 L1097,498 L1098,497 L1098,496 L1099,495 L1099,493 L1100,492 L1100,491 L1101,490 L1101,488 L1102,487 L1102,485 L1103,484 L1104,485 L1104,548 L1122,548 L1122,451 L1097,451 L1097,452 L1096,453 L1096,455 L1095,456 L1095,457 L1094,458 L1094,460 L1093,461 L1093,463 L1092,464 L1092,466 L1091,467 L1091,469 L1090,470 L1090,471 L1089,472 L1089,474 L1088,475 L1088,477 L1087,478 L1087,480 L1086,481 L1086,483 L1085,484 L1085,486 L1084,487 L1084,489 L1083,490 L1083,491 L1082,492 L1082,494 L1081,495 L1081,497 L1080,498 L1080,500 L1079,501 L1079,503 L1078,504 L1078,506 L1077,507 L1077,509 L1076,510 L1076,512 L1075,513 L1075,514 L1074,515 L1073,514 L1073,513 L1072,512 L1072,510 L1071,509 L1071,507 L1070,506 L1070,504 L1069,503 L1069,501 L1068,500 L1068,498 L1067,497 L1067,495 L1066,494 L1066,492 L1065,491 L1065,490 L1064,489 L1064,487 L1063,486 L1063,484 L1062,483 L1062,481 L1061,480 L1061,478 L1060,477 L1060,476 L1059,475 L1059,473 L1058,472 L1058,470 L1057,469 L1057,467 L1056,466 L1056,464 L1055,463 L1055,462 L1054,461 L1054,459 L1053,458 L1053,456 L1052,455 L1052,453 L1051,452 L1051,451 Z M963,451 L963,452 L962,453 L962,455 L961,456 L961,458 L960,459 L960,461 L959,462 L959,464 L958,465 L958,466 L957,467 L957,469 L956,470 L956,472 L955,473 L955,475 L954,476 L954,478 L953,479 L953,481 L952,482 L952,483 L951,484 L951,486 L950,487 L950,489 L949,490 L949,492 L948,493 L948,495 L947,496 L947,498 L946,499 L946,501 L945,502 L945,504 L944,505 L944,506 L943,507 L943,509 L942,510 L942,512 L941,513 L941,515 L940,516 L940,518 L939,519 L939,521 L938,522 L938,524 L937,525 L937,527 L936,528 L936,530 L935,531 L935,533 L934,534 L934,536 L933,537 L933,539 L932,540 L932,542 L931,543 L931,545 L930,546 L930,548 L950,548 L951,547 L951,545 L952,544 L952,542 L953,541 L953,539 L954,538 L954,535 L955,534 L955,532 L957,530 L990,530 L991,531 L991,533 L992,534 L992,535 L993,536 L993,539 L994,540 L994,542 L995,543 L995,545 L996,546 L996,548 L1017,548 L1017,546 L1016,545 L1016,543 L1015,542 L1015,540 L1014,539 L1014,537 L1013,536 L1013,535 L1012,534 L1012,532 L1011,531 L1011,529 L1010,528 L1010,526 L1009,525 L1009,523 L1008,522 L1008,520 L1007,519 L1007,517 L1006,516 L1006,514 L1005,513 L1005,512 L1004,511 L1004,509 L1003,508 L1003,506 L1002,505 L1002,503 L1001,502 L1001,500 L1000,499 L1000,497 L999,496 L999,495 L998,494 L998,492 L997,491 L997,489 L996,488 L996,486 L995,485 L995,483 L994,482 L994,480 L993,479 L993,478 L992,477 L992,475 L991,474 L991,472 L990,471 L990,469 L989,468 L989,466 L988,465 L988,463 L987,462 L987,461 L986,460 L986,458 L985,457 L985,455 L984,454 L984,452 L983,451 Z M972,479 L973,478 L974,479 L974,481 L975,482 L975,484 L976,485 L976,487 L977,488 L977,490 L978,491 L978,493 L979,494 L979,496 L980,497 L980,499 L981,500 L981,502 L982,503 L982,506 L983,507 L983,508 L984,509 L984,511 L983,512 L963,512 L962,511 L962,510 L963,509 L963,507 L964,506 L964,504 L965,503 L965,501 L966,500 L966,497 L967,496 L967,494 L968,493 L968,491 L969,490 L969,488 L970,487 L970,485 L971,484 L971,482 L972,481 Z M869,451 L868,452 L868,548 L924,548 L924,530 L889,530 L888,529 L888,510 L889,509 L920,509 L920,491 L889,491 L888,490 L888,470 L889,469 L923,469 L923,451 Z M790,451 L790,548 L809,548 L809,515 L810,514 L817,514 L819,516 L819,517 L820,518 L820,519 L821,520 L821,521 L823,523 L823,524 L824,525 L824,526 L825,527 L825,528 L827,530 L827,531 L828,532 L828,533 L829,534 L829,535 L830,536 L830,537 L832,539 L832,540 L833,541 L833,542 L835,544 L835,545 L836,546 L836,547 L837,548 L859,548 L859,547 L857,545 L857,544 L856,543 L856,542 L855,541 L855,540 L853,538 L853,537 L851,535 L851,534 L850,533 L850,532 L848,530 L848,529 L847,528 L847,527 L845,525 L845,524 L844,523 L844,522 L842,520 L842,519 L841,518 L841,517 L839,515 L839,514 L837,512 L837,511 L838,510 L839,510 L840,509 L841,509 L842,508 L843,508 L849,502 L849,501 L851,499 L851,498 L852,497 L852,495 L853,494 L853,491 L854,490 L854,477 L853,476 L853,473 L852,472 L852,471 L851,470 L851,468 L849,466 L849,465 L841,457 L840,457 L839,456 L838,456 L837,455 L836,455 L835,454 L834,454 L833,453 L830,453 L829,452 L824,452 L823,451 Z M809,470 L810,469 L822,469 L823,470 L826,470 L827,471 L828,471 L833,476 L833,477 L834,478 L834,481 L835,482 L835,485 L834,486 L834,489 L833,490 L833,491 L828,496 L827,496 L826,497 L822,497 L821,498 L810,498 L809,497 Z M702,451 L702,548 L735,548 L736,547 L742,547 L743,546 L746,546 L747,545 L749,545 L750,544 L752,544 L753,543 L754,543 L755,542 L756,542 L757,541 L758,541 L759,540 L760,540 L762,538 L763,538 L771,530 L771,529 L773,527 L773,526 L775,524 L775,523 L776,522 L776,520 L777,519 L777,518 L778,517 L778,514 L779,513 L779,510 L780,509 L780,491 L779,490 L779,486 L778,485 L778,483 L777,482 L777,480 L776,479 L776,478 L775,477 L775,476 L774,475 L774,474 L773,473 L773,472 L770,469 L770,468 L764,462 L763,462 L760,459 L759,459 L758,458 L757,458 L756,457 L755,457 L754,456 L753,456 L752,455 L750,455 L749,454 L748,454 L747,453 L743,453 L742,452 L737,452 L736,451 Z M721,470 L722,469 L737,469 L738,470 L741,470 L742,471 L744,471 L745,472 L746,472 L748,474 L749,474 L754,479 L754,480 L756,482 L756,483 L757,484 L757,485 L758,486 L758,488 L759,489 L759,493 L760,494 L760,506 L759,507 L759,510 L758,511 L758,513 L757,514 L757,515 L756,516 L756,517 L754,519 L754,520 L750,524 L749,524 L747,526 L746,526 L745,527 L744,527 L743,528 L740,528 L739,529 L722,529 L721,528 Z M1315,449 L1314,450 L1310,450 L1309,451 L1307,451 L1306,452 L1304,452 L1303,453 L1302,453 L1301,454 L1300,454 L1298,456 L1297,456 L1291,462 L1291,463 L1290,464 L1290,465 L1289,466 L1289,467 L1288,468 L1288,469 L1287,470 L1287,474 L1286,475 L1286,482 L1287,483 L1287,486 L1288,487 L1288,489 L1289,490 L1289,491 L1290,492 L1290,493 L1296,499 L1297,499 L1299,501 L1300,501 L1301,502 L1302,502 L1303,503 L1304,503 L1305,504 L1307,504 L1308,505 L1310,505 L1311,506 L1312,506 L1313,507 L1316,507 L1317,508 L1319,508 L1320,509 L1323,509 L1324,510 L1326,510 L1327,511 L1329,511 L1330,512 L1331,512 L1333,514 L1334,514 L1335,515 L1335,516 L1336,517 L1336,518 L1337,519 L1337,522 L1336,523 L1336,525 L1335,526 L1335,527 L1332,530 L1331,530 L1330,531 L1329,531 L1328,532 L1325,532 L1324,533 L1319,533 L1318,532 L1315,532 L1314,531 L1312,531 L1310,529 L1309,529 L1307,527 L1307,526 L1305,524 L1305,522 L1304,521 L1304,517 L1300,517 L1299,518 L1290,518 L1289,519 L1285,519 L1285,525 L1286,526 L1286,529 L1287,530 L1287,531 L1288,532 L1288,533 L1289,534 L1289,535 L1291,537 L1291,538 L1295,542 L1296,542 L1299,545 L1300,545 L1301,546 L1302,546 L1303,547 L1304,547 L1305,548 L1307,548 L1308,549 L1312,549 L1313,550 L1329,550 L1330,549 L1333,549 L1334,548 L1336,548 L1337,547 L1339,547 L1340,546 L1341,546 L1343,544 L1344,544 L1346,542 L1347,542 L1350,539 L1350,538 L1352,536 L1352,535 L1354,533 L1354,531 L1355,530 L1355,528 L1356,527 L1356,524 L1357,523 L1357,516 L1356,515 L1356,511 L1355,510 L1355,509 L1354,508 L1354,507 L1353,506 L1353,505 L1346,498 L1345,498 L1344,497 L1343,497 L1342,496 L1341,496 L1340,495 L1339,495 L1338,494 L1336,494 L1335,493 L1333,493 L1332,492 L1330,492 L1329,491 L1327,491 L1326,490 L1323,490 L1322,489 L1320,489 L1319,488 L1317,488 L1316,487 L1314,487 L1313,486 L1312,486 L1311,485 L1310,485 L1307,482 L1307,480 L1306,479 L1306,476 L1307,475 L1307,474 L1308,473 L1308,472 L1310,470 L1311,470 L1313,468 L1315,468 L1316,467 L1325,467 L1326,468 L1328,468 L1329,469 L1330,469 L1332,471 L1333,471 L1334,472 L1334,473 L1335,474 L1335,475 L1336,476 L1336,478 L1337,479 L1342,479 L1343,478 L1355,478 L1355,473 L1354,472 L1354,470 L1353,469 L1353,467 L1352,466 L1352,465 L1350,463 L1350,462 L1343,455 L1342,455 L1340,453 L1339,453 L1338,452 L1336,452 L1335,451 L1333,451 L1332,450 L1329,450 L1328,449 Z M328,336 L327,337 L323,337 L322,338 L320,338 L319,339 L318,339 L316,341 L315,341 L312,344 L312,345 L310,347 L310,348 L309,349 L309,350 L308,351 L308,353 L307,354 L307,363 L308,364 L308,366 L309,367 L309,369 L311,371 L311,372 L316,377 L317,377 L319,379 L320,379 L321,380 L323,380 L324,381 L475,381 L476,382 L476,406 L475,407 L296,407 L295,408 L292,408 L291,409 L290,409 L289,410 L288,410 L287,411 L286,411 L285,412 L284,412 L278,418 L278,419 L276,421 L276,422 L275,423 L275,424 L274,425 L274,427 L273,428 L273,431 L272,432 L272,588 L273,589 L273,593 L274,594 L274,596 L275,597 L275,598 L276,599 L276,600 L277,601 L277,602 L285,610 L286,610 L287,611 L288,611 L289,612 L290,612 L291,613 L294,613 L295,614 L527,614 L528,613 L530,613 L531,612 L532,612 L534,610 L535,610 L537,608 L537,607 L539,605 L539,604 L540,603 L540,602 L541,601 L541,599 L542,598 L542,551 L543,550 L545,552 L546,552 L548,554 L549,554 L550,555 L551,555 L553,557 L554,557 L556,559 L557,559 L559,561 L560,561 L561,562 L562,562 L564,564 L565,564 L567,566 L568,566 L570,568 L571,568 L573,570 L574,570 L575,571 L576,571 L578,573 L579,573 L581,575 L582,575 L584,577 L585,577 L587,579 L588,579 L589,580 L590,580 L592,582 L593,582 L595,584 L596,584 L598,586 L599,586 L601,588 L602,588 L604,590 L605,590 L606,591 L607,591 L609,593 L610,593 L612,595 L613,595 L615,597 L616,597 L618,599 L619,599 L621,601 L622,601 L623,602 L624,602 L626,604 L627,604 L629,606 L630,606 L631,607 L633,607 L634,608 L636,608 L637,607 L639,607 L643,603 L643,602 L644,601 L644,418 L643,417 L643,416 L640,413 L639,413 L638,412 L631,412 L630,413 L629,413 L627,415 L626,415 L624,417 L623,417 L621,419 L620,419 L619,420 L618,420 L616,422 L615,422 L613,424 L612,424 L610,426 L609,426 L607,428 L606,428 L604,430 L603,430 L601,432 L600,432 L599,433 L598,433 L596,435 L595,435 L593,437 L592,437 L590,439 L589,439 L587,441 L586,441 L585,442 L584,442 L582,444 L581,444 L579,446 L578,446 L576,448 L575,448 L574,449 L573,449 L571,451 L570,451 L568,453 L567,453 L565,455 L564,455 L562,457 L561,457 L560,458 L559,458 L557,460 L556,460 L554,462 L553,462 L551,464 L550,464 L548,466 L547,466 L546,467 L545,467 L543,469 L542,468 L542,422 L541,421 L541,419 L540,418 L540,417 L539,416 L539,415 L534,410 L533,410 L532,409 L531,409 L530,408 L529,408 L528,407 L509,407 L508,406 L508,382 L509,381 L525,381 L526,380 L528,380 L529,379 L530,379 L531,378 L532,378 L539,371 L539,370 L540,369 L540,368 L541,367 L541,365 L542,364 L542,354 L541,353 L541,351 L540,350 L540,349 L539,348 L539,347 L537,345 L537,344 L535,342 L534,342 L532,340 L531,340 L530,339 L529,339 L528,338 L527,338 L526,337 L521,337 L520,336 Z M400,453 L401,452 L418,452 L419,453 L423,453 L424,454 L426,454 L427,455 L429,455 L430,456 L432,456 L433,457 L434,457 L435,458 L436,458 L437,459 L438,459 L440,461 L441,461 L443,463 L444,463 L456,475 L456,476 L459,479 L459,480 L460,481 L460,482 L461,483 L461,484 L462,485 L462,486 L463,487 L463,488 L464,489 L464,491 L465,492 L465,494 L466,495 L466,498 L467,499 L467,505 L468,506 L468,515 L467,516 L467,522 L466,523 L466,526 L465,527 L465,529 L464,530 L464,532 L463,533 L463,534 L462,535 L462,536 L461,537 L461,538 L460,539 L460,540 L459,541 L459,542 L457,544 L457,545 L444,558 L443,558 L441,560 L440,560 L438,562 L437,562 L436,563 L435,563 L434,564 L433,564 L432,565 L430,565 L429,566 L427,566 L426,567 L424,567 L423,568 L419,568 L418,569 L400,569 L399,568 L395,568 L394,567 L392,567 L391,566 L389,566 L388,565 L386,565 L385,564 L384,564 L383,563 L382,563 L381,562 L380,562 L378,560 L377,560 L375,558 L374,558 L361,545 L361,544 L359,542 L359,541 L358,540 L358,539 L357,538 L357,537 L356,536 L356,535 L355,534 L355,533 L354,532 L354,530 L353,529 L353,527 L352,526 L352,523 L351,522 L351,515 L350,514 L350,507 L351,506 L351,500 L352,499 L352,495 L353,494 L353,492 L354,491 L354,489 L355,488 L355,487 L356,486 L356,485 L357,484 L357,483 L358,482 L358,481 L360,479 L360,478 L362,476 L362,475 L373,464 L374,464 L376,462 L377,462 L379,460 L380,460 L381,459 L382,459 L383,458 L384,458 L385,457 L386,457 L387,456 L388,456 L389,455 L392,455 L393,454 L395,454 L396,453 Z M871,319 L871,320 L873,322 L873,323 L874,324 L874,325 L875,326 L875,327 L876,328 L876,329 L878,331 L878,332 L879,333 L879,334 L880,335 L880,336 L882,338 L882,339 L883,340 L883,341 L884,342 L884,343 L885,344 L885,345 L887,347 L887,348 L888,349 L888,350 L889,351 L889,352 L891,354 L891,355 L892,356 L892,357 L893,358 L893,359 L894,360 L894,361 L896,363 L896,364 L897,365 L897,366 L898,367 L898,368 L899,369 L899,370 L901,372 L901,373 L902,374 L902,375 L903,376 L903,377 L904,378 L904,418 L925,418 L925,378 L926,377 L926,376 L928,374 L928,373 L929,372 L929,371 L930,370 L930,369 L932,367 L932,366 L933,365 L933,364 L934,363 L934,362 L935,361 L935,360 L937,358 L937,357 L938,356 L938,355 L939,354 L939,353 L941,351 L941,350 L942,349 L942,348 L943,347 L943,346 L945,344 L945,343 L946,342 L946,341 L947,340 L947,339 L948,338 L948,337 L950,335 L950,334 L951,333 L951,332 L952,331 L952,330 L953,329 L953,328 L955,326 L955,325 L956,324 L956,323 L957,322 L957,321 L958,320 L958,319 L936,319 L936,320 L935,321 L935,322 L933,324 L933,325 L932,326 L932,327 L931,328 L931,329 L930,330 L930,331 L928,333 L928,334 L927,335 L927,336 L926,337 L926,338 L924,340 L924,341 L923,342 L923,343 L922,344 L922,345 L921,346 L921,347 L919,349 L919,350 L918,351 L918,352 L917,353 L917,354 L915,356 L913,354 L913,353 L912,352 L912,351 L910,349 L910,348 L909,347 L909,346 L908,345 L908,344 L906,342 L906,341 L905,340 L905,339 L904,338 L904,337 L903,336 L903,335 L901,333 L901,332 L900,331 L900,330 L899,329 L899,328 L897,326 L897,325 L896,324 L896,323 L895,322 L895,321 L894,320 L894,319 Z M826,319 L825,320 L825,322 L824,323 L824,324 L823,325 L823,327 L822,328 L822,330 L821,331 L821,333 L820,334 L820,335 L819,336 L819,338 L818,339 L818,341 L817,342 L817,343 L816,344 L816,346 L815,347 L815,349 L814,350 L814,352 L813,353 L813,354 L812,355 L812,357 L811,358 L811,360 L810,361 L810,362 L809,363 L809,365 L808,366 L808,368 L807,369 L807,371 L806,372 L806,373 L805,374 L805,376 L804,377 L804,379 L803,380 L803,382 L802,383 L802,384 L801,385 L801,387 L800,388 L800,390 L799,391 L799,393 L798,394 L798,395 L797,396 L797,398 L796,399 L796,401 L795,402 L795,403 L794,404 L794,406 L793,407 L793,409 L792,410 L792,412 L791,413 L791,414 L790,415 L790,418 L811,418 L812,417 L812,415 L813,414 L813,412 L814,411 L814,409 L815,408 L815,406 L816,405 L816,403 L817,402 L817,400 L819,398 L853,398 L855,400 L855,402 L856,403 L856,405 L857,406 L857,407 L858,408 L858,410 L859,411 L859,413 L860,414 L860,416 L861,417 L861,418 L883,418 L883,416 L882,415 L882,413 L881,412 L881,411 L880,410 L880,408 L879,407 L879,405 L878,404 L878,403 L877,402 L877,400 L876,399 L876,397 L875,396 L875,395 L874,394 L874,392 L873,391 L873,390 L872,389 L872,387 L871,386 L871,384 L870,383 L870,382 L869,381 L869,379 L868,378 L868,376 L867,375 L867,374 L866,373 L866,371 L865,370 L865,368 L864,367 L864,366 L863,365 L863,363 L862,362 L862,360 L861,359 L861,358 L860,357 L860,355 L859,354 L859,352 L858,351 L858,350 L857,349 L857,347 L856,346 L856,344 L855,343 L855,342 L854,341 L854,339 L853,338 L853,336 L852,335 L852,334 L851,333 L851,331 L850,330 L850,328 L849,327 L849,326 L848,325 L848,323 L847,322 L847,320 L846,319 Z M835,347 L836,346 L837,347 L837,349 L838,350 L838,352 L839,353 L839,355 L840,356 L840,358 L841,359 L841,361 L842,362 L842,364 L843,365 L843,367 L844,368 L844,370 L845,371 L845,373 L846,374 L846,376 L847,377 L847,378 L848,379 L848,380 L847,381 L846,381 L845,380 L827,380 L826,381 L825,381 L824,380 L825,379 L825,377 L826,376 L826,374 L827,373 L827,371 L828,370 L828,368 L829,367 L829,365 L830,364 L830,362 L831,361 L831,359 L832,358 L832,356 L833,355 L833,353 L834,352 L834,350 L835,349 Z M702,319 L702,418 L734,418 L735,417 L736,418 L737,417 L747,417 L748,416 L752,416 L753,415 L755,415 L756,414 L758,414 L759,413 L760,413 L761,412 L763,412 L765,410 L766,410 L767,409 L768,409 L770,407 L771,407 L780,398 L780,397 L782,395 L782,394 L783,393 L783,392 L784,391 L784,390 L785,389 L785,388 L786,387 L786,385 L787,384 L787,382 L788,381 L788,377 L789,376 L789,361 L788,360 L788,356 L787,355 L787,353 L786,352 L786,350 L785,349 L785,348 L784,347 L784,346 L783,345 L783,344 L782,343 L782,342 L780,340 L780,339 L770,329 L769,329 L767,327 L766,327 L765,326 L764,326 L763,325 L762,325 L761,324 L760,324 L759,323 L757,323 L756,322 L754,322 L753,321 L750,321 L749,320 L745,320 L744,319 Z M722,338 L723,337 L739,337 L740,338 L745,338 L746,339 L748,339 L749,340 L751,340 L752,341 L753,341 L755,343 L756,343 L762,349 L762,350 L764,352 L764,353 L765,354 L765,355 L766,356 L766,358 L767,359 L767,364 L768,365 L768,372 L767,373 L767,377 L766,378 L766,380 L765,381 L765,383 L763,385 L763,386 L761,388 L761,389 L758,392 L757,392 L754,395 L753,395 L752,396 L751,396 L750,397 L748,397 L747,398 L742,398 L741,399 L723,399 L722,398 Z " fill="black" fill-rule="evenodd" /></svg>