<?xml version="1.0" standalone="no"?>
<!DOCTYPE svg PUBLIC "-//W3C//DTD SVG 20010904//EN"
 "http://www.w3.org/TR/2001/REC-SVG-20010904/DTD/svg10.dtd">
<svg version="1.0" xmlns="http://www.w3.org/2000/svg"
 width="1080.000000pt" height="848.000000pt" viewBox="0 0 1080.000000 848.000000"
 preserveAspectRatio="xMidYMid meet">

<g transform="translate(0.000000,848.000000) scale(0.100000,-0.100000)"
fill="#000000" stroke="none">
<path d="M735 8020 c-154 -13 -318 -30 -342 -36 l-23 -4 0 -1021 c0 -807 3
-1020 13 -1024 33 -10 451 -38 587 -39 128 0 170 4 244 22 321 81 443 281 487
800 13 156 7 547 -11 687 -48 370 -175 544 -440 601 -89 19 -367 27 -515 14z
m433 -343 c32 -34 58 -116 79 -247 15 -97 18 -176 18 -500 -1 -536 -15 -617
-120 -670 -46 -23 -59 -25 -200 -25 -82 0 -158 3 -167 7 -17 7 -18 50 -18 710
0 387 4 708 8 715 16 25 62 32 218 32 156 1 161 0 182 -22z"/>
<path d="M2225 8021 c-89 -11 -134 -29 -140 -54 -9 -39 -243 -1413 -290 -1706
-26 -157 -44 -295 -40 -308 10 -42 58 -57 200 -61 117 -4 133 -2 154 15 21 17
27 44 70 331 l47 313 187 0 c104 1 190 -1 193 -4 2 -2 25 -125 50 -273 24
-148 51 -284 59 -302 23 -50 82 -72 213 -79 101 -5 108 -4 127 17 l20 22 -94
556 c-66 398 -121 686 -192 1010 -54 250 -104 462 -109 473 -24 44 -65 54
-235 55 -88 1 -187 -1 -220 -5z m249 -731 c37 -201 69 -373 72 -382 5 -17 -6
-18 -130 -18 -75 0 -136 2 -136 5 0 2 27 173 60 379 33 206 60 378 60 382 0
33 17 -51 74 -366z"/>
<path d="M3070 8023 c-74 -12 -102 -42 -79 -85 6 -13 144 -255 305 -539 l294
-516 0 -459 c1 -345 4 -463 13 -475 28 -37 79 -53 174 -53 76 -1 95 2 110 17
17 16 18 54 23 505 l5 487 261 510 c143 281 264 519 268 529 12 34 -18 63 -81
76 -76 16 -194 8 -229 -15 -20 -13 -71 -108 -201 -372 -96 -195 -176 -353
-178 -352 -7 8 -371 645 -377 660 -11 28 -71 67 -118 78 -44 10 -140 12 -190
4z"/>
<path d="M690 5289 c-63 -5 -160 -15 -215 -22 l-100 -12 -3 -1022 -2 -1022 32
-5 c47 -7 255 -24 455 -36 240 -16 378 5 518 78 201 105 292 313 326 746 13
160 6 542 -11 681 -48 370 -169 540 -430 600 -89 21 -391 29 -570 14z m475
-342 c38 -38 58 -97 83 -242 13 -82 16 -173 16 -500 1 -553 -11 -617 -120
-671 -57 -28 -64 -29 -205 -29 -109 0 -150 3 -162 14 -16 12 -17 75 -17 716 0
638 2 704 16 716 17 14 122 25 273 27 82 2 84 1 116 -31z"/>
<path d="M2165 5290 c-38 -5 -107 -14 -152 -20 l-83 -12 0 -999 c0 -696 3
-1005 11 -1022 16 -34 56 -55 135 -67 81 -13 167 -5 186 17 10 13 14 101 16
405 l3 388 102 0 102 -1 129 -302 c197 -458 188 -441 249 -472 94 -45 296 -57
328 -19 19 24 9 52 -186 493 -168 378 -178 404 -159 413 38 21 120 114 152
175 54 102 73 196 79 379 4 127 2 178 -11 244 -34 164 -113 283 -223 335 -111
53 -191 67 -408 70 -110 2 -231 0 -270 -5z m426 -326 c22 -11 40 -35 62 -82
31 -65 32 -72 32 -197 0 -190 -30 -259 -128 -300 -41 -17 -176 -32 -239 -27
l-38 3 0 294 c0 224 3 296 13 302 37 24 256 29 298 7z"/>
<path d="M5140 5294 c-8 -1 -36 -6 -62 -9 -88 -11 -75 36 -204 -715 -165 -966
-222 -1322 -214 -1345 12 -37 71 -56 188 -62 126 -7 156 -2 177 31 12 17 105
576 105 629 0 4 86 6 192 5 l192 -3 48 -285 c34 -200 54 -292 67 -310 25 -35
95 -58 198 -66 118 -8 143 2 143 57 0 99 -192 1172 -284 1591 -52 236 -98 433
-102 439 -3 6 -25 20 -48 30 -35 16 -65 18 -211 18 -93 -1 -177 -3 -185 -5z
m239 -727 c35 -193 66 -364 68 -379 l6 -28 -135 0 -134 0 60 380 c33 209 63
380 66 380 3 0 34 -159 69 -353z"/>
<path d="M6250 5289 c-19 -5 -45 -21 -57 -35 l-23 -25 0 -992 c0 -866 2 -995
15 -1014 25 -36 107 -57 226 -58 75 0 111 4 122 14 15 12 17 74 19 665 l3 651
83 -163 83 -163 137 3 137 3 85 157 85 156 5 -627 c4 -502 8 -631 18 -644 29
-35 102 -52 219 -52 94 0 115 3 130 18 17 16 18 56 21 580 2 490 -1 619 -22
1009 -14 261 -29 455 -35 467 -20 36 -70 54 -163 59 -96 5 -138 -6 -161 -42
-7 -11 -80 -184 -162 -383 -82 -200 -151 -363 -154 -363 -3 0 -60 139 -125
308 -171 439 -161 418 -214 449 -38 22 -58 27 -141 29 -53 2 -112 -1 -131 -7z"/>
<path d="M9345 5290 c-38 -5 -105 -14 -147 -21 l-78 -11 0 -1005 c0 -703 3
-1010 11 -1025 37 -70 305 -91 323 -25 3 12 6 192 6 400 l0 377 104 0 104 0
157 -362 c86 -200 164 -371 173 -382 45 -50 252 -91 341 -67 l43 12 -5 42 c-2
24 -82 216 -185 447 l-180 405 37 30 c92 75 154 176 186 298 54 217 38 504
-38 654 -58 113 -161 185 -312 219 -82 18 -430 27 -540 14z m455 -346 c49 -56
71 -132 71 -254 0 -160 -25 -244 -86 -284 -54 -35 -267 -66 -307 -45 -17 9
-18 33 -18 293 0 250 2 285 16 297 22 18 99 27 207 26 86 -2 90 -3 117 -33z"/>
<path d="M3380 4257 l0 -1004 23 -21 c23 -22 24 -22 521 -22 549 0 543 -1 566
62 6 18 14 67 17 108 7 96 -9 134 -65 149 -22 7 -165 11 -354 11 l-318 0 0
290 0 290 284 0 c258 0 286 2 306 18 26 21 39 79 40 175 0 134 -7 137 -363
137 l-273 0 -12 208 c-7 114 -12 222 -12 240 l0 32 319 0 c302 0 320 1 343 20
38 29 56 76 64 162 8 92 -5 121 -63 137 -24 7 -219 11 -530 11 l-493 0 0
-1003z"/>
<path d="M7800 4251 l0 -1010 22 -15 c20 -14 86 -16 524 -16 487 0 502 1 527
20 33 27 46 68 49 161 4 93 -11 125 -61 139 -21 6 -175 10 -358 10 l-323 0 0
290 0 290 286 0 c169 0 293 4 304 10 39 21 64 198 37 262 -22 53 -50 58 -359
58 -258 0 -268 1 -268 19 0 26 -18 310 -25 394 l-6 67 318 0 c233 0 325 4 342
13 39 19 62 69 70 150 8 88 -1 132 -32 149 -17 10 -142 14 -534 16 l-513 3 0
-1010z"/>
<path d="M2295 2570 c-137 -9 -193 -24 -205 -53 -10 -22 -206 -1164 -296
-1716 -34 -212 -45 -298 -37 -310 24 -37 69 -52 175 -56 148 -5 179 2 195 45
7 19 32 166 56 325 l43 290 192 3 c105 1 192 -1 192 -4 0 -26 94 -555 102
-577 21 -54 137 -89 273 -81 60 3 85 18 85 53 0 8 -43 269 -95 580 -68 399
-124 695 -192 1004 -103 470 -106 477 -171 491 -52 11 -207 14 -317 6z m180
-740 c36 -201 68 -373 71 -382 5 -17 -6 -18 -130 -18 -75 0 -136 3 -136 8 0 4
27 175 60 380 33 206 60 379 61 385 1 26 11 -21 74 -373z"/>
<path d="M720 2564 c-104 -8 -332 -34 -341 -40 -5 -3 -9 -421 -9 -1024 l0
-1019 32 -5 c137 -22 537 -42 661 -35 245 15 413 104 510 269 88 150 137 448
137 830 0 572 -93 858 -312 960 -118 55 -164 62 -403 65 -121 1 -245 1 -275
-1z m441 -335 c75 -75 109 -305 109 -751 0 -280 -13 -484 -36 -565 -16 -59
-61 -103 -123 -121 -52 -16 -318 -17 -337 -1 -12 10 -14 115 -14 714 0 780 -5
721 68 736 20 3 99 7 175 8 127 1 139 -1 158 -20z"/>
<path d="M3019 2547 c-19 -12 -35 -32 -37 -43 -2 -17 494 -1855 528 -1959 27
-78 105 -108 273 -107 123 1 149 11 166 64 25 78 472 1984 469 2002 -2 11 -19
31 -38 44 -32 22 -43 23 -142 20 -100 -3 -109 -5 -133 -28 -22 -23 -42 -100
-180 -720 -85 -382 -161 -719 -167 -749 -9 -42 -14 -50 -20 -35 -4 10 -89 338
-188 727 -99 390 -187 721 -195 738 -27 50 -79 69 -198 69 -92 0 -108 -3 -138
-23z"/>
<path d="M4610 1527 c0 -891 2 -1005 16 -1025 l15 -22 499 0 c293 0 509 4 524
10 45 17 60 54 64 157 5 108 -5 136 -51 153 -19 6 -155 10 -358 10 l-329 0 0
290 0 289 290 3 c350 4 327 -6 340 143 5 62 5 107 -2 126 -19 56 -39 59 -348
59 -217 0 -280 3 -280 13 0 6 -7 109 -15 227 -8 118 -15 220 -15 227 0 9 79
13 326 15 l326 3 28 32 c16 18 34 49 39 70 14 48 14 158 1 183 -20 37 -58 40
-571 40 l-499 0 0 -1003z"/>
</g>
</svg>
